<svg xmlns="http://www.w3.org/2000/svg" viewBox="0 0 156.46 289.09"><defs><style>.cls-1{fill:#fff}</style></defs><g id="Layer_2" data-name="Layer 2"><g id="Layer_1-2" data-name="Layer 1"><path class="cls-1" d="M148.66 106.24l7.8 6.2c-4.09-11.81-11.31-20-23.31-23.49l.14-.76 12-1.7c-10.19-4.12-20.11-4.37-30.11-.44l-.25-.53 8.76-9.65-.36-.38c-8.91 3.23-16.74 8.17-23 16-.78-3.7.46-7.31-2.16-10.31-4.45 8.61-8.16 17.24-8 27.24l-7.8-3.42c2.57 10.69 6.4 19.93 15.24 27.09L90 134.6l-.07.66 15.38 6.63c-.29.72-.45 2.27-1 2.42-2 .57-1.59 2.12-1.78 3.41-.5 3.35-.93 6.72-1.39 10.08l2.49.55c-.14 1.64-.68 2.67-2.24 3a1.5 1.5 0 00-1 .93c-.69 3.77-1.32 7.56-2 11.47l2.71.18c.17 1.72-.06 2.86-2.06 2.86a2.19 2.19 0 00-1.59 1.33c-.64 2.48-1.07 5-1.58 7.48-.27 1.34-.55 2.64-.83 4l2.69.32c-.07 1.79-.58 3-2.42 3.34a2.53 2.53 0 00-1.4 1.6c-.9 3.36-1.67 6.77-2.49 10.15-.52 2.17-1 4.33-1.61 6.62l3.77.36c-1.16 1.8-1.5 4-4.16 3.72a1.06 1.06 0 00-.8.62c-.49 1.75-1 3.52-1.49 5.57h3.73c-.89 2.38-1.36 2.8-3.36 3.15-.48.08-1.21.38-1.32.73-.85 2.7-1.57 5.4-2.39 8.4l5.11-1c-.58 1.5-1.09 2.5-1.39 3.5a4.9 4.9 0 01-4.38 3.91 2 2 0 00-1.39.95c-.9 2.7-1.66 5.44-2.51 8.31l4 .26c-.7 1.55-1.32 2.81-1.83 4.12a3.07 3.07 0 01-2.71 2.14 2.78 2.78 0 00-1.82 1.63c-1.31 3.89-2.43 7.84-3.61 11.78q-.86 2.81-1.69 5.61l.67-.28c.63.61 1.56 1.12 1.82 1.86.54 1.53-.13 2.53-1.88 2.53-1.51 0-2.36.55-2.51 2.08a3.68 3.68 0 01-.23.71l-.66-.29c0-.62-.06-1.25 0-1.87 1.39-15.06.59-30.15-.41-45.15-1.19-17.14-2.87-34.25-2.63-51.45.1-10.82.65-21.63 1-32.44.31-9.55.6-19.09.9-28.75l-2.44 1.09c-.27 5-.49 9.86-.86 14.76-.09 1.2-.12 2 1.2 2.45a1.66 1.66 0 011 1.3c0 .38-.75.92-1.23 1a1.62 1.62 0 00-1.48 1.77c-.19 2.92-.57 5.82-.7 8.74a11 11 0 00.7 3l.57-.05c-.19.38-.29 1-.6 1.11-1.36.64-1.31 1.85-1.43 3-.14 1.36-.27 2.73-.41 4.09-.16 1.55-.35 3 1.54 3.9.55.24.62 1.74.55 2.64 0 .34-1.23.66-1.64.91s-1.09.59-1.09.91v7.24c.26.06.5.1.73.17.87.25 2.35-.58 2.27 1.31-.09 1.39 0 2.84-2.09 2.71-1.11-.07-1.3.68-1.3 1.6-.06 4.1-.12 8.21-.23 12.32 0 1.54.47 2.31 2.17 2 1.39-.26 2 .36 2 1.84 0 3.43 0 6.85.1 10.27 0 1.2-.39 2-1.54 2.2-2 .36-2.28 1.56-2.21 3.36q.61 15.32 1.09 30.61c.11 3.56 0 3.56 3.47 3.56a3.52 3.52 0 011.29.12 1.1 1.1 0 01.58.79c.11 1.7-1.9 4.55-3.61 5a1.63 1.63 0 00-1.41 1.82c-.11 3.55-.36 7.09-.49 10.63V276c1.1-.19 1.77-.33 2.44-.41 1.28-.15 1.79.7 1.54 1.7a2.07 2.07 0 01-1.54 1.16c-2.22.11-3.29 1-2.94 3.33 0 .05-.08.11-.08.17-3.55.76-4 .53-5.55-2.47q-2.66-5.13-5.2-10.34c-8.55-17.33-14-35.58-14.35-55-.37-18.92 0-37.85 0-56.78a2.18 2.18 0 01.47-1.51c2.26-1.7 4.6-3.29 6.91-4.92l.47.11-2 7.68c7.53-7.11 11.25-15.25 9.83-25.46l.71-.11c1.76 2.66 3.53 5.32 5.46 8.21-.47-8.92-3.6-16.32-10.18-22.18l.41-.43 10.21 2.81a37.19 37.19 0 00-20-11.37c2.69-1.84 5.74-2.34 7.25-5.34-8.32-.07-16.16.37-23.9 4.19v-7c-7.26 5.6-12.9 11.78-15.43 20.4l-.88.32-3.43-4.77-.53.47c-1.07 8.93.35 17.32 6 24.78l-.51.46L0 142.21c6.57 7.35 14.15 11.78 23.65 12.67l.09.63-7.17 3.87a41.31 41.31 0 0016.66-2l.34 2.1 2.14.76.23.58-2.72 1.84c0 1.75-.12 4 0 6.22a11 11 0 001 2.73 4.43 4.43 0 00-1 4.68l1.59.33a2.64 2.64 0 01-.12.88c-.55.94-1.63 1.83-1.63 2.78-.2 3.71-.08 7.43-.08 11.22l2.4.55c-.77 1-1.31 1.74-1.89 2.44-.26.31-.88.54-.88.82v10l.44.11c.73.17 1.84-.46 1.92 1.05.08 1.33-.75 1.27-1.65 1.44a1.44 1.44 0 00-.86 1.09v9.29l.67-.25 2.16 1.46-1.72 2.56-.51-.22c.26 2.28.49 4.57.79 6.84.29 2 .55 4 1 5.89.11.48.95.87 1.49 1.14s1.44.26 1.54.58a2.43 2.43 0 01-.28 1.93c-.34.45-1.15.54-1.76.79.36 3.58.36 3.58 4.36 4.58l-2.56 3c.26.85.81 2.38 1.15 3.79s1 2 2.47 1.41a1.86 1.86 0 011.75.5c1.13 2.49.71 3.52-1.81 4.79.6 1.53 1.26 3.06 1.82 4.64v.13a1.69 1.69 0 002.06 1.21c1.35-.26 1.92.5 2.09 1.74.1.72.27 1.43.41 2.15l-2 .84c1.69 3.51 3.35 6.91 5 10.32a2.52 2.52 0 002.27 1.81c.8.07 1.52 1.12 2.27 1.73l-.26.52c-3.15.23-6.29.43-9.45.68s-6.26.46-9.48.79-6.49.71-9.63 1.18-6.37 1-9.37 1.68-6 1.46-9 2.19l.11.4h112.48c-14.41-4.59-29.35-5.83-44.49-6.7.24-.93.39-1.59.57-2.24 5-18.43 10.21-36.8 15-55.3 6.94-26.9 12.31-54.12 15-81.82.12-1.24.54-1.46 1.75-1.46 3.23.09 6.46 0 9.68-.06a24.32 24.32 0 002.7-.36l.47.54-5.62 7.31c11.51-3.23 20.64-9 26.85-18.92l.7.34v9.31h.65c6.09-10.35 8.52-21.24 4.24-33.09z"/><path class="cls-1" d="M27.56 40.73c-2.12 7.05-2.37 14.3-1.76 22 2.62-3.66 3.32-8 6.74-11.3 1.58 15.1 9 26.51 20.25 36.43-.33-4.23-2.55-7.68-2-11.87 1 .58 1.51 1 2.1 1.29a104.27 104.27 0 009.66 5.19c2.12.83 1.77 3.7 4.12 4v.18c.59 2.2.07 3.19-2 3.88V95c0 1-.21 2 1.37 2.15.25 0 .64.74.64 1.14 0 1-.12 2.09-.19 3.19H65c0 1.66-.08 3.27 0 4.87a1.56 1.56 0 00.75 1.1 1.53 1.53 0 01.56.42 1.55 1.55 0 01-.18 2.18c-1.39.73-1.09 1.83-1.09 2.83-.11 1.81 0 3.7-.11 5.42s.51 2.4 2.28 2.24c0-12-.64-24.06.48-36.28a56.66 56.66 0 0022.27 1.16 8.76 8.76 0 00-2-1.89c-1.24-1-2.53-2-3.66-3.17-1.34-1.35-1.15-2.06.66-2.59a47.15 47.15 0 0015.12-7.5c5.26-3.93 9.62-8.74 14-13.83-3.34-1.83-6.84-.19-10.41-.9 5.73-11.25 6.07-23 5.63-35.35-4.59 2.21-5.39 6.87-8 10.68A59.41 59.41 0 0094.58 14a72.63 72.63 0 00-11-14l-.51.27 4.83 16.09-.48.39C78.12 6.57 66.52 1.52 52.91.94c4.16 2.86 9 4.82 12.41 9A42.68 42.68 0 0044.07 12 47.45 47.45 0 0026 24.48c4.5-.88 8.36-3.17 13.29-2.48a40.28 40.28 0 00-11.73 18.73z"/></g></g></svg>